<svg xmlns="http://www.w3.org/2000/svg" viewBox="0 0 960 540" role="img" aria-labelledby="title desc">
  <title id="title">Inspection checklist illustration</title>
  <desc id="desc">Clipboard with checklist marks for vehicle inspection steps.</desc>
  <defs>
    <linearGradient id="bg" x1="0" y1="0" x2="1" y2="1">
      <stop offset="0%" stop-color="#e7f0ff" />
      <stop offset="100%" stop-color="#cedcff" />
    </linearGradient>
  </defs>
  <rect width="960" height="540" rx="28" fill="url(#bg)" />
  <rect x="238" y="84" width="484" height="372" rx="26" fill="#f9fbff" stroke="#2a61dd" stroke-width="10" />
  <rect x="410" y="52" width="140" height="56" rx="18" fill="#b9cdff" stroke="#2a61dd" stroke-width="8" />
  <g fill="none" stroke-linecap="round" stroke-linejoin="round" stroke-width="12">
    <rect x="298" y="168" width="44" height="44" rx="10" fill="#fff" stroke="#2a61dd" />
    <path d="M306 190l10 10 18-18" stroke="#2a61dd" />
    <path d="M370 190h252" stroke="#7d9be3" />
    <rect x="298" y="246" width="44" height="44" rx="10" fill="#fff" stroke="#2a61dd" />
    <path d="M306 268l10 10 18-18" stroke="#2a61dd" />
    <path d="M370 268h252" stroke="#7d9be3" />
    <rect x="298" y="324" width="44" height="44" rx="10" fill="#fff" stroke="#2a61dd" />
    <path d="M306 346l10 10 18-18" stroke="#2a61dd" />
    <path d="M370 346h252" stroke="#7d9be3" />
  </g>
  <circle cx="156" cy="126" r="72" fill="#ffffff" opacity="0.22" />
  <circle cx="836" cy="452" r="92" fill="#ffffff" opacity="0.2" />
</svg>
