<svg width="24" height="24" viewBox="0 0 24 24" fill="none" xmlns="http://www.w3.org/2000/svg">
<path fill-rule="evenodd" clip-rule="evenodd" d="M16.6669 3C18.5336 3 19.4673 3.0002 20.1803 3.36804C20.8073 3.69156 21.317 4.20766 21.6365 4.84241C21.9998 5.56433 22 6.50975 22 8.39978V18.3967C22 19.258 22 19.6887 21.8186 19.9473C21.6602 20.173 21.4156 20.3233 21.1427 20.3627C20.8301 20.4077 20.4458 20.2132 19.6773 19.8241L18.3064 19.1301C18.0267 18.9885 17.8866 18.9175 17.74 18.8676C17.6097 18.8232 17.4747 18.7913 17.3385 18.772C17.1854 18.7503 17.0284 18.75 16.7157 18.75H7.33312C5.46642 18.75 4.53267 18.7498 3.81966 18.382C3.19275 18.0584 2.68303 17.5423 2.3635 16.9076C2.0002 16.1857 2 15.2403 2 13.3502V8.39978C2 6.50975 2.0002 5.56433 2.3635 4.84241C2.68303 4.20766 3.19275 3.69156 3.81966 3.36804C4.53267 3.0002 5.46642 3 7.33312 3H16.6669ZM11.9306 14.25C11.4705 14.2502 11.0972 14.6279 11.0972 15.0938C11.0972 15.5596 11.4705 15.9373 11.9306 15.9375H11.9414C12.4015 15.9373 12.7747 15.5596 12.7747 15.0938C12.7747 14.6279 12.4015 14.2502 11.9414 14.25H11.9306ZM11.9295 5.8125C10.5049 5.81288 9.30958 6.79999 8.97049 8.13391C8.85617 8.58491 9.12517 9.04491 9.57053 9.16113C10.0161 9.27694 10.4704 9.00466 10.5851 8.55359C10.7394 7.94739 11.284 7.50038 11.9295 7.5C12.6965 7.5 13.3184 8.1296 13.3184 8.90625C13.3184 9.20769 13.2114 9.42511 12.8789 9.75C12.6988 9.92591 12.4867 10.1004 12.2127 10.3312C11.9491 10.5532 11.6463 10.8124 11.3403 11.1222C11.0154 11.4516 11.0154 11.9859 11.3403 12.3153C11.6657 12.6448 12.1943 12.6447 12.5197 12.3153C12.7689 12.063 13.0223 11.844 13.2793 11.6276C13.5257 11.4201 13.8004 11.1949 14.0367 10.964C14.5375 10.4745 14.985 9.84745 14.985 8.90625C14.985 7.19762 13.617 5.8125 11.9295 5.8125Z" fill="#0F60ED" style="fill:#0F60ED;fill:color(display-p3 0.0588 0.3765 0.9294);fill-opacity:1;"/>
</svg>
